<svg width="82" height="67" viewBox="0 0 82 67" fill="none" xmlns="http://www.w3.org/2000/svg">
<mask id="mask0_216_556" style="mask-type:luminance" maskUnits="userSpaceOnUse" x="0" y="0" width="82" height="67">
<path d="M82 0H0V67H82V0Z" fill="white"/>
</mask>
<g mask="url(#mask0_216_556)">
<path d="M59.186 53.6647C59.155 59.3717 61.183 64.5348 56.527 65.3098C42.777 67.6008 29.003 67.6078 15.34 65.0548C13.898 64.7848 13.305 63.2338 13.359 61.8988L14.718 28.2898L6.40402 28.1338C5.62702 28.1188 4.38804 27.2638 4.17804 26.4378L0.0730253 10.3368C-0.397975 8.48878 1.48402 7.17477 2.95602 6.65477L20.918 0.292769C23.039 -0.458231 23.792 0.392785 25.66 1.08378C32.445 3.59278 40.541 3.56576 47.302 1.04576C49.181 0.34576 49.912 -0.431229 52.072 0.331771L69.997 6.66575C71.892 7.33675 73.0531 8.48676 72.7931 10.8698L70.082 20.1408C65.491 16.9318 59.838 15.9748 54.591 17.5258C49.344 19.0768 45.074 22.9678 42.954 28.1568C36.566 31.6908 34.207 38.9808 36.791 45.5118C39.709 51.9338 46.788 55.3528 53.523 52.7758L59.188 53.6658L59.186 53.6647Z" fill="#002598"/>
<path d="M65.316 48.4766C61.495 49.8746 57.498 50.0446 53.714 48.2726C48.754 51.0696 42.778 49.2196 40.479 44.0406C38.429 38.8716 40.664 33.0816 46.092 31.1806C47.578 25.9876 51.576 22.2336 56.602 21.1566C61.937 20.1636 67.024 21.7216 70.56 26.0266C75.315 26.0376 79.379 29.0716 80.996 33.1356C83.065 37.7486 81.753 42.7106 78.738 46.0016C75.231 49.6766 70.1 50.5147 65.316 48.4776V48.4766ZM68.088 41.9886C70.024 43.3856 72.343 42.6386 73.786 41.1646C75.168 39.7546 75.702 37.6466 74.686 35.6586C73.954 34.2296 72.161 32.5306 70.143 32.9376C67.313 33.5076 66.854 38.5306 63.003 36.8106C61.759 36.2536 61.296 34.6226 61.721 33.1166C62.136 31.6406 63.311 30.6606 64.35 29.5316C62.051 27.4896 59.198 27.1086 56.566 28.4086C54.471 29.4426 52.675 31.6886 52.364 34.3896C51.843 38.9096 47.383 36.4886 46.488 39.6456C46.209 40.6306 46.887 41.7446 47.476 42.1626C48.375 42.7996 49.575 43.0266 50.36 42.1386C51.671 40.6526 53.69 40.0676 55.432 41.2936C57.804 42.9666 60.831 43.2746 63.319 41.6306C64.911 40.5796 66.501 40.8406 68.089 41.9876L68.088 41.9886Z" fill="#00DA4D"/>
</g>
</svg>
