<svg width="30" height="35" viewBox="0 0 30 35" fill="none" xmlns="http://www.w3.org/2000/svg">
<path d="M8.33334 26.6667H11.4167L12.375 23.75H17.5417L18.5 26.6667H21.6667L16.6667 12.5833H13.3333L8.33334 26.6667ZM13.1667 21.3333L15 15.8333L16.7917 21.3333H13.1667ZM10 3.33333V0H20V3.33333H10ZM9.18667 33.8133C7.36778 33.0211 5.77778 31.9444 4.41667 30.5833C3.05556 29.2222 1.97945 27.6317 1.18834 25.8117C0.397225 23.9917 0.00111344 22.0544 2.331e-06 20C-0.00110878 17.9456 0.395002 16.0078 1.18834 14.1867C1.98167 12.3656 3.05778 10.7756 4.41667 9.41667C5.77556 8.05778 7.36611 6.98167 9.18833 6.18833C11.0106 5.395 12.9478 4.99889 15 5C16.7222 5 18.375 5.27778 19.9583 5.83333C21.5417 6.38889 23.0278 7.19444 24.4167 8.25L26.75 5.91667L29.0833 8.25L26.75 10.5833C27.8056 11.9722 28.6111 13.4583 29.1667 15.0417C29.7222 16.625 30 18.2778 30 20C30 22.0556 29.6039 23.9933 28.8117 25.8133C28.0194 27.6333 26.9433 29.2233 25.5833 30.5833C24.2233 31.9433 22.6328 33.02 20.8117 33.8133C18.9906 34.6067 17.0533 35.0022 15 35C12.9467 34.9978 11.0089 34.6022 9.18667 33.8133Z" fill="#00DA4D"/>
</svg>
