<svg width="49" height="79" viewBox="0 0 49 79" fill="none" xmlns="http://www.w3.org/2000/svg">
<mask id="mask0_216_645" style="mask-type:luminance" maskUnits="userSpaceOnUse" x="0" y="0" width="49" height="79">
<path d="M49 0H0V79H49V0Z" fill="white"/>
</mask>
<g mask="url(#mask0_216_645)">
<path d="M30.5089 46.6631C38.6509 53.6151 39.1329 65.803 31.8299 73.354C24.5479 80.885 12.4199 80.89 5.11893 73.318C-2.14908 65.781 -1.65408 53.579 6.46792 46.672L6.53094 11.455C6.54194 4.94704 12.2219 -0.0129745 18.5139 2.54952e-05C24.8839 0.0130255 30.4669 5.07302 30.4729 11.628L30.5089 46.6631ZM21.2599 50.921L21.2419 30.217C21.2399 28.604 19.7599 27.497 18.3549 27.579C16.8769 27.666 15.7229 28.815 15.7229 30.39V50.925C10.7599 52.329 7.68093 57.151 8.45193 62.158C9.20593 67.049 13.4849 70.726 18.5099 70.721C23.5519 70.717 27.8709 66.977 28.5539 61.985C29.2379 56.993 26.2089 52.336 21.2609 50.92L21.2599 50.921Z" fill="#002598"/>
<path d="M46.4449 25.6924L36.9729 25.7244C35.4169 25.7294 34.2439 24.4814 34.2019 23.0554C34.1589 21.6504 35.2339 20.2394 36.7999 20.2384L46.3469 20.2314C47.8549 20.2314 48.9559 21.5154 48.9989 22.8994C49.0409 24.2834 48.0269 25.6864 46.4449 25.6914V25.6924Z" fill="#00DA4D"/>
<path d="M46.4449 47.7354L36.9729 47.7675C35.4169 47.7725 34.2439 46.5244 34.2019 45.0984C34.1589 43.6934 35.2339 42.2834 36.7999 42.2814L46.3469 42.2744C47.8549 42.2744 48.9559 43.5584 48.9989 44.9424C49.0399 46.2644 48.0269 47.7304 46.4449 47.7354Z" fill="#00DA4D"/>
<path d="M40.907 14.6799L37.145 14.713C35.588 14.727 34.341 13.635 34.212 12.202C34.078 10.707 35.176 9.21797 36.795 9.21497L40.807 9.20996C42.305 9.20896 43.411 10.4859 43.453 11.8759C43.494 13.2319 42.475 14.6649 40.907 14.6799Z" fill="#00DA4D"/>
<path d="M40.907 36.723L37.145 36.7559C35.588 36.7699 34.341 35.6779 34.212 34.2449C34.078 32.7499 35.176 31.2609 36.795 31.2579L40.807 31.2529C42.305 31.2519 43.41 32.5289 43.453 33.9189C43.494 35.2749 42.475 36.708 40.907 36.723Z" fill="#00DA4D"/>
</g>
</svg>
