<svg width="30" height="35" viewBox="0 0 30 35" fill="none" xmlns="http://www.w3.org/2000/svg">
<path d="M16 0L10.6667 5.33333H2.66667C2.66667 5.33333 0 5.33333 0 8V32C0 34.6667 2.66667 34.6667 2.66667 34.6667H26.6667C26.6667 34.6667 29.3333 34.6667 29.3333 32V2.66667C29.3333 0 26.6667 0 26.6667 0H16ZM17.3333 2.66667H22.6667C23.4133 2.66667 24 3.25333 24 4C24 4.74667 23.4133 5.33333 22.6667 5.33333H17.3333C16.5867 5.33333 16 4.74667 16 4C16 3.25333 16.5867 2.66667 17.3333 2.66667ZM14.6667 13.3333C19.0933 13.3333 22.6667 16.9067 22.6667 21.3333C22.6667 25.76 19.0933 29.3333 14.6667 29.3333C10.24 29.3333 6.66667 25.76 6.66667 21.3333C6.66667 16.9067 10.24 13.3333 14.6667 13.3333Z" fill="#00DA4D"/>
</svg>
