<svg width="30" height="27" viewBox="0 0 30 27" fill="none" xmlns="http://www.w3.org/2000/svg">
<path d="M3 27C2.175 27 1.46875 26.7062 0.88125 26.1187C0.29375 25.5312 0 24.825 0 24V3C0 2.175 0.29375 1.46875 0.88125 0.88125C1.46875 0.29375 2.175 0 3 0H27C27.825 0 28.5312 0.29375 29.1187 0.88125C29.7062 1.46875 30 2.175 30 3V24C30 24.825 29.7062 25.5312 29.1187 26.1187C28.5312 26.7062 27.825 27 27 27H3ZM3 24H27V3H3V24ZM4.5 21H12V18H4.5V21ZM18.825 18L26.25 10.575L24.1125 8.4375L18.825 13.7625L16.6875 11.625L14.5875 13.7625L18.825 18ZM4.5 15H12V12H4.5V15ZM4.5 9H12V6H4.5V9ZM3 24V3V24Z" fill="#002598"/>
</svg>
