<svg width="40" height="40" viewBox="0 0 40 40" fill="none" xmlns="http://www.w3.org/2000/svg">
<path fill-rule="evenodd" clip-rule="evenodd" d="M16.2729 1.78286L14.5804 3.02536C14.2822 3.26324 13.9662 3.47803 13.6354 3.66786C13.4125 3.78631 13.179 3.88341 12.9379 3.95786C12.6654 4.04036 12.3829 4.08286 11.8154 4.17036L9.74036 4.48786C8.10286 4.73786 7.28286 4.86536 6.64036 5.24786C6.06536 5.58536 5.58786 6.06536 5.24786 6.64036C4.86536 7.29036 4.74036 8.11036 4.48786 9.74036L4.17036 11.8154C4.08286 12.3829 4.04036 12.6679 3.95786 12.9404C3.88286 13.182 3.78619 13.4137 3.66786 13.6354C3.53286 13.8854 3.36536 14.1179 3.02536 14.5804L1.78286 16.2729C0.802857 17.6079 0.312857 18.2754 0.122857 18.9979C-0.0409524 19.6435 -0.0409524 20.3198 0.122857 20.9654C0.310357 21.6954 0.802857 22.3654 1.78286 23.6904L3.02536 25.3829C3.36536 25.8454 3.53536 26.0779 3.66786 26.3279C3.78452 26.5512 3.88119 26.7845 3.95786 27.0279C4.04036 27.2979 4.08286 27.5804 4.17036 28.1479L4.48786 30.2229C4.73786 31.8604 4.86536 32.6779 5.24786 33.3229C5.58536 33.8979 6.06536 34.3779 6.64036 34.7154C7.29036 35.0979 8.11036 35.2229 9.74036 35.4754L11.8154 35.7929C12.3829 35.8804 12.6679 35.9254 12.9379 36.0079C13.1795 36.0812 13.412 36.1779 13.6354 36.2979C13.8854 36.4304 14.1179 36.5979 14.5804 36.9404L16.2729 38.1829C17.6079 39.1629 18.2754 39.6529 18.9979 39.8429C19.6429 40.0104 20.3204 40.0104 20.9654 39.8429C21.6954 39.6529 22.3654 39.1629 23.6904 38.1829L25.3829 36.9404C25.8454 36.6004 26.0779 36.4304 26.3279 36.2979C26.5512 36.1779 26.7837 36.0812 27.0254 36.0079C27.2979 35.9254 27.5804 35.8829 28.1479 35.7929L30.2229 35.4754C31.8604 35.2254 32.6779 35.1004 33.3229 34.7154C33.8979 34.3779 34.3779 33.8979 34.7154 33.3229C35.0979 32.6729 35.2229 31.8529 35.4754 30.2229L35.7929 28.1479C35.8804 27.5804 35.9229 27.2979 36.0054 27.0254C36.0804 26.7837 36.177 26.5512 36.2954 26.3279C36.4304 26.0779 36.5979 25.8454 36.9379 25.3829L38.1804 23.6904C39.1604 22.3554 39.6504 21.6904 39.8404 20.9654C40.0042 20.3198 40.0042 19.6435 39.8404 18.9979C39.6529 18.2679 39.1604 17.5979 38.1804 16.2729L36.9379 14.5804C36.7 14.2822 36.4852 13.9662 36.2954 13.6354C36.1769 13.4125 36.0798 13.179 36.0054 12.9379C35.9061 12.5696 35.835 12.1944 35.7929 11.8154L35.4754 9.74036C35.2254 8.10286 35.0979 7.28286 34.7154 6.64036C34.3745 6.0674 33.8958 5.58873 33.3229 5.24786C32.6729 4.86536 31.8529 4.74036 30.2229 4.48786L28.1479 4.17036C27.7688 4.12817 27.3936 4.05713 27.0254 3.95786C26.7837 3.88491 26.55 3.78775 26.3279 3.66786C25.997 3.47803 25.6811 3.26324 25.3829 3.02536L23.6904 1.78286C22.3554 0.802857 21.6879 0.312857 20.9654 0.122857C20.3197 -0.0409524 19.6435 -0.0409524 18.9979 0.122857C18.2679 0.312857 17.5979 0.802857 16.2729 1.78286ZM29.5979 15.3079C29.7425 15.1314 29.8504 14.9277 29.915 14.7088C29.9796 14.4899 29.9997 14.2603 29.974 14.0335C29.9484 13.8068 29.8776 13.5874 29.7657 13.3885C29.6539 13.1896 29.5033 13.0151 29.3229 12.8754C28.9558 12.5882 28.4912 12.4558 28.028 12.5062C27.5647 12.5566 27.1395 12.786 26.8429 13.1454L18.5679 23.2954L14.1429 19.8954C13.7814 19.6012 13.3193 19.4598 12.8551 19.5014C12.3909 19.5429 11.9613 19.7641 11.6579 20.1179C11.5096 20.2913 11.3976 20.4928 11.3285 20.7103C11.2595 20.9278 11.2347 21.1569 11.2557 21.3841C11.2766 21.6114 11.3429 21.8321 11.4507 22.0332C11.5584 22.2344 11.7054 22.4119 11.8829 22.5554L17.6829 27.0804C18.0491 27.3783 18.5184 27.5192 18.9882 27.4724C19.4579 27.4255 19.8901 27.1947 20.1904 26.8304L29.5904 15.2804L29.5979 15.3079Z" fill="#00DA4D"/>
</svg>
